<svg xmlns="http://www.w3.org/2000/svg" width="31.381" height="31.412" viewBox="0 0 31.381 31.412">
  <path id="settings-solid" d="M33.963,16.319l-3.508-1.047a12.2,12.2,0,0,0-.995-2.44l1.717-3.215a.639.639,0,0,0-.115-.754l-2.5-2.513a.639.639,0,0,0-.754-.115L24.613,7.942A12.167,12.167,0,0,0,22.142,6.9L21.095,3.429A.639.639,0,0,0,20.477,3H16.938a.639.639,0,0,0-.607.45L15.284,6.906a12.177,12.177,0,0,0-2.492,1.047L9.65,6.256a.639.639,0,0,0-.754.115L6.352,8.853a.639.639,0,0,0-.115.754l1.7,3.141A12.177,12.177,0,0,0,6.886,15.23L3.42,16.277a.639.639,0,0,0-.45.607v3.539a.639.639,0,0,0,.45.607l3.487,1.047a12.167,12.167,0,0,0,1.047,2.44L6.237,27.805a.639.639,0,0,0,.115.754l2.5,2.5a.639.639,0,0,0,.754.115l3.235-1.728a12.2,12.2,0,0,0,2.408.984L16.3,33.962a.639.639,0,0,0,.607.45h3.539a.639.639,0,0,0,.607-.45L22.1,30.423a12.177,12.177,0,0,0,2.387-.984l3.256,1.738a.639.639,0,0,0,.754-.115l2.5-2.5a.639.639,0,0,0,.115-.754l-1.738-3.246a12.177,12.177,0,0,0,.995-2.4L33.9,21.114a.639.639,0,0,0,.45-.607V16.937a.639.639,0,0,0-.387-.618ZM18.707,24.465a5.759,5.759,0,1,1,5.759-5.759,5.759,5.759,0,0,1-5.759,5.759Z" transform="translate(-2.97 -3)" fill="#0064d2"/>
</svg>
